PathFileType	4	(X/Y/Z)	Patient4_TMGait_0pt7_02_right_24.trc.trc
DataRate	CameraRate	NumFrames	NumMarkers	Units	OrigDataRate	OrigDataStartFrame	OrigNumFrames
86.956521739130	86.956521739130	4	33	mm	86.956521739130	71	       141
Frame#	Time	Sacral			L.Shoulder			Chest			R.Shoulder			Neck			R.ASIS			L.ASIS			R.Thigh.Superior			R.Thigh.Lateral			R.Thigh.Inferior			R.Patella			L.Thigh.Superior			L.Thigh.Lateral			L.Thigh.Inferior			L.Patella			L.Shank.Superior			L.Shank.Lateral			L.Shank.Inferior			R.Shank.Superior			R.Shank.Lateral			R.Shank.Inferior			R.Heel			R.Midfoot.Superior			R.Midfoot.Lateral			R.Toe			L.Heel			L.Midfoot.Lateral			L.Midfoot.Superior			L.Toe			L.Elbow			L.Wrist			R.Elbow			R.Wrist			
		X1	Y1	Z1	X2	Y2	Z2	X3	Y3	Z3	X4	Y4	Z4	X5	Y5	Z5	X6	Y6	Z6	X7	Y7	Z7	X8	Y8	Z8	X9	Y9	Z9	X10	Y10	Z10	X11	Y11	Z11	X12	Y12	Z12	X13	Y13	Z13	X14	Y14	Z14	X15	Y15	Z15	X16	Y16	Z16	X17	Y17	Z17	X18	Y18	Z18	X19	Y19	Z19	X20	Y20	Z20	X21	Y21	Z21	X22	Y22	Z22	X23	Y23	Z23	X24	Y24	Z24	X25	Y25	Z25	X26	Y26	Z26	X27	Y27	Z27	X28	Y28	Z28	X29	Y29	Z29	X30	Y30	Z30	X31	Y31	Z31	X32	Y32	Z32	X33	Y33	Z33	

71	27.535000000000	827.736509501674	1002.200186171420	503.861305918956	987.247763968022	1408.750285426851	280.497158567257	1117.298928944589	1339.262433976159	421.171891520304	1074.911693779870	1427.544515395818	602.705653975007	1022.627753846102	1475.914112161909	429.430016272705	1059.274120007481	928.902350355753	594.735651938377	1016.926634948056	938.778438626681	321.942110757620	1049.744253943556	714.732907617799	574.177509632130	945.570966500881	625.909624163810	643.359420668031	998.111485730592	557.417193784224	560.700291993541	976.107352320224	472.482974302224	567.401733748559	1099.549742973577	768.169437618542	358.207968074634	1056.169610830688	636.555309932536	282.005775826666	1163.669537298870	584.336286598362	343.679462902849	1191.966993656571	517.435602859471	341.575762139050	1174.863857942002	442.198401129854	329.808657336741	1107.286722689209	313.894752818544	277.316066845947	1192.269716609687	213.455664946069	332.958348985410	935.450348130342	389.286324974578	577.848743676707	850.466628202157	299.139392627434	645.589039686588	872.330486944247	198.586449968993	582.185600870134	717.406214274801	42.983153231176	556.472486693575	888.656540160008	95.876662320158	592.327826641232	799.759711638259	36.148116185185	631.971249485773	1008.519497030692	41.793697438061	623.320408644525	1106.375088781010	37.135846274713	365.540148144851	1182.521041693861	42.411074132470	287.451093081748	1253.321854971360	117.244893110341	313.827468120934	1387.890292677953	85.074212534144	291.146200139028	803.282417246547	1101.347623329514	228.781183631491	720.973731052953	859.888575637465	271.779637451312	1241.515009805378	1140.051155889902	714.841801566550	1436.724514252988	1246.102975444784	599.284766595534	
72	27.546500000000	828.970534061803	1000.265794680527	500.251087344815	987.265475568428	1407.440342631385	277.367406936052	1117.050780458897	1338.711838343401	418.599758222452	1073.327414260616	1426.703151185056	599.819143755090	1021.631573181856	1474.728473778532	426.429200769305	1060.203291637358	927.448133747991	592.224424442940	1019.220942105538	937.052277547269	319.545564994744	1050.422177699490	713.056473116376	572.053989988967	945.670842425003	624.450066875794	640.982390816890	998.438252455464	555.490289347106	558.723983310231	975.843545797211	469.733128030127	565.477654623635	1101.464981929087	765.092517835215	355.640999379827	1055.600920697533	633.855128619400	280.409432202303	1163.076164374761	581.036409410465	341.629561562592	1189.684360055518	513.591355636514	340.226441969796	1172.588957625918	438.584389413623	328.386434958224	1104.148332711459	310.504618858810	276.859598243886	1188.634327434436	210.024626120862	332.934168263565	933.346678402488	387.281954140652	576.260867008736	846.733749891083	298.898784662166	644.402371874466	866.588018689879	197.777973509343	581.511257101497	709.359180400496	43.598634958789	556.688110946137	880.949510885856	95.850461583035	592.198312782775	791.811580664627	36.346490821578	632.097572635322	1000.624273670227	41.520084430612	623.410141055653	1100.752993235429	36.300153505809	367.231766315607	1176.326049558958	39.567658233323	288.371023554875	1248.908745812187	112.656247830646	314.218239237537	1382.649747487909	77.274999064832	290.706181640102	799.782933973831	1102.994826723633	226.742538931278	714.976691905590	862.604680650090	271.924592864836	1245.815943849172	1143.169248762722	710.040542894740	1433.034951082211	1260.452603008144	593.319893504238	
73	27.558000000000	829.997853879892	998.485713356612	496.575166206883	987.379202776877	1406.227199577934	274.134478777720	1116.846022660930	1338.218655579949	415.966339932711	1071.803212229781	1425.958400231019	596.874099620784	1020.748337086199	1473.678471331039	423.311598613375	1060.981067547221	926.092791915524	589.678254371461	1021.396278157751	935.576340052016	317.120331770666	1051.426662148426	711.546100417449	569.788804641427	946.389627642989	622.914577017355	638.415452557200	999.659907337750	553.580820482540	556.591587378600	976.644987546948	466.741262064249	563.524252476557	1103.664824603808	762.862426036192	353.105000855866	1055.871985648998	632.045708120600	278.595800370735	1163.269598161892	578.697094542862	339.425126032641	1188.295653140098	510.572712154491	338.670132355457	1171.035696377754	435.609635632570	326.914749955925	1101.499838648593	308.064759706328	275.764064471664	1184.624086944283	207.133299915770	332.686893340550	931.989356438829	385.212041352970	574.609431083270	843.565053858433	298.857962074452	643.113644939878	861.246537588843	197.136784181936	580.816576337533	701.395477967336	44.808229391429	556.974869200000	873.469018838090	95.880681143622	592.081157875803	783.951061776087	36.853712987476	632.229684480585	992.774400554484	41.144752176362	623.480670818533	1093.831867830259	36.078692722730	368.350304860288	1169.003906386993	37.353571725722	288.874735104365	1243.471133255437	108.581561226653	314.426196587564	1376.366514282648	69.811237439323	290.318662232041	797.404055379685	1104.021912345191	224.467856896503	710.320519047652	864.633932123951	271.508034436842	1249.421582646868	1146.009930478111	705.488726282730	1428.583457353530	1273.406362936142	587.784124469383	
74	27.569500000000	830.796589749271	996.937116265010	492.872395284111	987.579833904985	1405.181592366035	270.833867036686	1116.672384462372	1337.821400476451	413.290679031920	1070.380912316405	1425.377010429242	593.887134663081	1020.002506514451	1472.832034256452	420.109445498570	1061.559139867448	924.927273322239	587.093760503708	1023.387684450406	934.442327204196	314.622730974494	1052.743837043815	710.284236199475	567.387061786068	947.754172880868	621.359848698187	635.679093760603	1001.820917280178	551.764478261900	554.327109301244	978.589257717630	463.580088660519	561.615059754155	1106.046593193125	761.549590702129	350.589594441912	1056.901263642973	631.118929121382	276.567745024916	1164.102610675325	577.282308617179	337.098326285937	1187.718888694417	508.420389305845	336.957784382773	1170.159083551123	433.306592323442	325.460795445086	1099.413103265750	306.542435019219	274.093883376467	1180.402708013245	204.826466801015	332.277964539115	931.460054288746	383.159419164801	572.932693268479	841.021447664273	299.133171974997	641.733767430610	856.388943688123	196.776041925548	580.119099029749	693.578349240517	46.834187410133	557.309481441342	866.290274159534	96.004786558712	591.983461158611	776.208201454915	37.816357738920	632.355816101823	984.954507006513	40.643766535583	623.519003461135	1086.045191465802	36.282646947672	368.915681316175	1160.987549734213	35.770310457709	289.004338599467	1237.254896925127	105.202396949484	314.491775503240	1369.356708148434	63.221861927965	290.023365459881	796.190839017939	1104.400294892363	221.942895116802	707.076114177715	865.925107982024	270.483765362179	1252.267436708870	1148.513244527708	701.217341315744	1423.489547979419	1284.907630459094	582.691335104939	
